<svg width="84" height="142" viewBox="0 0 84 142" fill="none" xmlns="http://www.w3.org/2000/svg">
<g opacity="0.92">
<g clip-path="url(#clip0)">
<path d="M72.3709 100.055C72.1677 100.12 71.9397 100.209 71.6968 100.338C71.449 100.457 71.1763 100.591 70.8839 100.74C70.6063 100.918 70.3039 101.111 69.9817 101.315C69.3522 101.751 68.6929 102.316 68.0336 102.995C67.7114 103.342 67.3942 103.719 67.067 104.11C66.7696 104.522 66.4276 104.933 66.1451 105.394C65.5304 106.286 64.9802 107.288 64.4101 108.314C63.8698 109.35 63.3097 110.42 62.7446 111.506C62.1646 112.596 61.6144 113.632 60.9205 114.688C60.2612 115.68 59.5276 116.651 58.7245 117.514C57.9116 118.371 57.0739 119.174 56.1767 119.848C55.2894 120.528 54.3922 121.127 53.49 121.603C52.6027 122.104 51.7155 122.466 50.8926 122.783C50.4762 122.917 50.0747 123.046 49.693 123.17C49.3064 123.269 48.9396 123.358 48.5926 123.447C48.2456 123.512 47.9184 123.571 47.6161 123.626C47.3534 123.67 47.1154 123.69 46.8973 123.715C46.8973 122.971 46.9221 122.228 46.9667 121.494C47.046 120.711 47.0758 119.848 47.1997 119.105C47.2542 118.718 47.3038 118.332 47.3583 117.94C47.4178 117.543 47.5021 117.142 47.5715 116.736C48.1514 113.489 49.1527 110.103 50.2829 106.594C51.4081 103.079 52.6969 99.4408 53.7181 95.619C54.2137 93.8296 54.6053 91.9955 54.9325 90.1317C54.9375 90.1268 54.9424 90.1268 54.9474 90.1218C55.1655 89.988 55.5075 89.7748 55.8892 89.5071C56.6724 88.9619 57.7282 88.1093 58.8336 86.9543C59.1062 86.6668 59.3888 86.3595 59.6664 86.0373C59.8101 85.8688 59.9539 85.6953 60.1026 85.5168C60.2314 85.3483 60.3653 85.1797 60.4942 85.0063C61.0543 84.2578 61.5797 83.43 62.0457 82.5575C62.9776 80.8077 63.6815 78.8448 64.2763 76.8918C64.5737 75.9153 64.8463 74.9338 65.114 73.9771C65.3767 73.0056 65.6494 72.1034 66.0063 71.2508C66.7151 69.5357 67.642 68.0387 68.5591 66.8491C69.4711 65.6495 70.3634 64.7523 71.0028 64.1426C71.325 63.8402 71.5828 63.6072 71.7612 63.4536C71.9397 63.2999 72.0339 63.2156 72.0339 63.2156C72.0339 63.2156 71.9298 63.29 71.7414 63.4337C71.5481 63.5725 71.2705 63.7857 70.9235 64.0633C70.2345 64.6184 69.263 65.4512 68.2418 66.5913C67.2108 67.7215 66.1302 69.1788 65.2478 70.9088C64.7968 71.7713 64.43 72.728 64.0929 73.6549C63.7459 74.5918 63.3989 75.5385 63.0321 76.4655C62.2985 78.3293 61.4707 80.1336 60.4892 81.6603C59.9935 82.4287 59.478 83.1078 58.9476 83.7125C58.7989 83.8711 58.6551 84.0297 58.5163 84.1884C58.3825 84.3272 58.2437 84.461 58.1148 84.5948C57.8372 84.8724 57.5597 85.1252 57.292 85.3681C56.5683 86.0125 55.8991 86.5132 55.3142 86.8998C55.3836 85.8291 55.4133 84.7535 55.4084 83.6927C55.3984 81.6802 55.2844 79.6924 55.2101 77.7345L55.1605 76.2672V74.8198C55.1704 73.8433 55.1357 72.8519 55.2101 71.9051C55.3439 68.0883 55.8446 64.2764 56.3849 60.6281C56.7864 58.0703 57.178 55.577 57.5597 53.158C57.5944 53.1481 57.634 53.1432 57.6836 53.1283C57.8769 53.0787 58.1248 53.044 58.5263 52.9201C58.9228 52.816 59.364 52.6524 59.8646 52.4641C60.1075 52.355 60.3653 52.236 60.6379 52.1121C60.9006 51.9684 61.1832 51.8296 61.4657 51.666C62.0209 51.3289 62.6157 50.9472 63.1858 50.4763C63.7657 50.0153 64.3358 49.485 64.8761 48.9C65.4263 48.3201 65.9269 47.6658 66.4028 46.9817C66.8787 46.2927 67.2951 45.5789 67.6718 44.8007C67.8502 44.4438 67.9989 44.0274 68.1476 43.6259C68.2765 43.2293 68.4104 42.8377 68.5145 42.4461C68.7425 41.6629 68.9308 40.8996 69.1341 40.161C69.3373 39.4274 69.5306 38.7185 69.7636 38.0642C69.9817 37.4049 70.2444 36.8051 70.5121 36.2648C70.6558 36.0021 70.8095 35.7543 70.9433 35.5163C71.1069 35.2933 71.2606 35.0851 71.4093 34.8868C71.5778 34.7084 71.7365 34.5448 71.8852 34.3911C72.0339 34.2375 72.2024 34.1383 72.3412 34.0243C72.6089 33.7913 72.8766 33.6922 73.0401 33.5931C73.2087 33.5038 73.2979 33.4543 73.2979 33.4543C73.2979 33.4543 73.2037 33.4939 73.0302 33.5732C72.8617 33.6575 72.5841 33.7418 72.2916 33.9549C72.1479 34.059 71.9645 34.1532 71.8009 34.2969C71.6373 34.4407 71.4638 34.5993 71.2755 34.7679C71.1119 34.9612 70.9334 35.1644 70.75 35.3776C70.5914 35.6105 70.413 35.8534 70.2444 36.1161C69.9272 36.6515 69.6099 37.2463 69.3373 37.9006C69.0498 38.55 68.797 39.2539 68.5392 39.9776C68.2815 40.7013 68.0336 41.4547 67.7561 42.1983C67.6222 42.575 67.4685 42.9369 67.3198 43.3086C67.1563 43.6556 67.0076 44.0026 66.7944 44.3645C66.4078 45.0287 65.9517 45.6979 65.466 46.2977C64.9752 46.8974 64.4647 47.4675 63.9244 47.9582C63.389 48.4589 62.8388 48.9 62.2886 49.2718C61.7483 49.6584 61.1931 49.9509 60.6825 50.2136C60.4248 50.3375 60.172 50.4416 59.934 50.5507C59.6911 50.6399 59.4582 50.7242 59.245 50.8035C58.8038 50.9373 58.4172 51.0464 58.1198 51.096C58.0454 51.1158 57.9661 51.1307 57.8868 51.1455C57.9413 50.7886 58.0008 50.4317 58.0554 50.0798C58.323 48.3994 58.5114 46.7487 58.7196 45.1576C58.8683 43.5565 59.0666 42.0198 59.1211 40.5278C59.1607 39.7843 59.2004 39.0556 59.2401 38.3418C59.245 37.628 59.25 36.934 59.25 36.25C59.2946 34.8918 59.1657 33.603 59.1112 32.3984C59.0963 32.0961 59.0765 31.7987 59.0616 31.5062C59.0269 31.2137 58.9873 30.9312 58.9526 30.6487C58.8832 30.0885 58.8138 29.5482 58.7444 29.0277C58.6452 27.9868 58.4073 27.0499 58.2388 26.2023C57.9364 24.4922 57.4903 23.1984 57.2375 22.3111C56.9747 21.4238 56.831 20.948 56.831 20.948C56.831 20.948 56.9549 21.4288 57.1929 22.326C57.4209 23.2232 57.8224 24.5268 58.0702 26.2419C58.209 27.0945 58.4222 28.0314 58.4866 29.0723C58.5362 29.5879 58.5857 30.1282 58.6403 30.6883C58.6651 30.9659 58.6948 31.2534 58.7245 31.5409C58.7295 31.8334 58.7394 32.1258 58.7493 32.4282C58.7642 33.6278 58.8534 34.9066 58.7691 36.2549C58.7444 36.9291 58.7196 37.6181 58.6948 38.3269C58.6353 39.0308 58.5709 39.7545 58.5064 40.4881C58.4073 41.9603 58.1595 43.4871 57.9661 45.0683C57.7084 46.6446 57.4704 48.2755 57.1532 49.941C56.5187 53.282 55.8545 56.8063 55.1605 60.4546C54.5062 64.1227 53.8767 67.9098 53.614 71.8803C53.5099 72.8767 53.5148 73.8433 53.4702 74.8247L53.4504 75.4196C53.3165 75.365 53.1777 75.3056 53.0092 75.2362C52.0872 74.8396 50.7885 74.2002 49.3708 73.1939C48.6669 72.6933 47.9333 72.0984 47.2146 71.4144L46.9518 71.1517L46.818 71.0178L46.8081 71.0079C46.8825 71.0922 46.823 71.0277 46.8378 71.0426L46.823 71.0228L46.7883 70.9831L46.7238 70.9088C46.5503 70.7055 46.3719 70.4973 46.1934 70.2892C46.015 70.081 45.8316 69.8678 45.6482 69.6547C45.5044 69.4415 45.3607 69.2284 45.212 69.0103C45.0633 68.7922 44.9146 68.5741 44.7609 68.356C44.6171 68.1279 44.4932 67.8702 44.3544 67.6273C44.2206 67.3794 44.0818 67.1316 43.948 66.8788C43.8141 66.626 43.71 66.3534 43.5911 66.0906C43.3531 65.5603 43.1152 65.0249 42.9268 64.4598C42.7186 63.9046 42.5154 63.3396 42.3518 62.7596C41.985 61.6145 41.6826 60.4398 41.3852 59.2798C41.0928 58.115 40.8003 56.9649 40.5227 55.8546C40.2402 54.7393 39.9328 53.6686 39.6255 52.6623C39.457 52.1617 39.2885 51.6759 39.1298 51.205C38.9662 50.7341 38.768 50.2929 38.5994 49.8666C38.4359 49.4354 38.2425 49.0388 38.0492 48.6621C37.8609 48.2854 37.6923 47.9285 37.5089 47.5964C37.1074 46.9619 36.7852 46.3968 36.4729 45.9606C35.8186 45.1179 35.4419 44.6321 35.4419 44.6321C35.4419 44.6321 35.7839 45.1377 36.3787 46.0201C36.6613 46.4711 36.9389 47.0561 37.2908 47.7054C37.4445 48.0425 37.5882 48.4093 37.7518 48.791C37.9154 49.1727 38.079 49.5742 38.2128 50.0104C38.3516 50.4416 38.5152 50.8878 38.644 51.3587C38.768 51.8296 38.9018 52.3203 39.0307 52.8259C39.2637 53.8421 39.5016 54.9128 39.7048 56.038C39.9081 57.1632 40.1212 58.3281 40.3344 59.5079C40.5525 60.6926 40.7805 61.902 41.0779 63.1066C41.2068 63.7113 41.3803 64.3111 41.5587 64.9059C41.7173 65.5057 41.9255 66.0956 42.1436 66.6756C42.2527 66.968 42.3469 67.2605 42.4708 67.543C42.5997 67.8256 42.7286 68.1032 42.8574 68.3857C42.9913 68.6633 43.1053 68.9458 43.254 69.2185C43.4126 69.4911 43.5712 69.7588 43.7299 70.0264C43.8885 70.2941 44.0471 70.5568 44.2008 70.8195C44.3693 71.0426 44.5378 71.2657 44.7014 71.4887C44.865 71.7118 45.0286 71.9299 45.1921 72.143L45.2516 72.2224L45.2814 72.262L45.3508 72.3463L45.4896 72.5049L45.7671 72.8172C46.5107 73.6351 47.284 74.3439 48.0275 74.9586C49.5245 76.178 50.9273 76.9909 51.9336 77.5114C52.4243 77.7642 52.8704 77.9674 53.1282 78.0814C53.262 78.1409 53.3612 78.1855 53.4305 78.2153C53.4454 80.0592 53.49 81.8933 53.4405 83.7026C53.3909 85.6457 53.2323 87.569 52.8803 89.4328C52.4986 91.3115 52.0426 93.1852 51.4726 95.0192C50.3721 98.6923 48.9891 102.251 47.74 105.766C46.8725 108.185 46.0646 110.589 45.4003 112.973C45.2516 112.8 45.1029 112.626 44.9393 112.428C44.7559 112.17 44.5626 111.898 44.3544 111.605C44.171 111.298 43.9777 110.971 43.7745 110.634C43.4076 109.925 43.026 109.142 42.6988 108.259C42.3568 107.387 42.0693 106.425 41.7867 105.424C41.5141 104.418 41.2613 103.357 41.0184 102.271C40.7755 101.171 40.5277 100.055 40.2749 98.9402C40.0122 97.8546 39.6602 96.6947 39.2736 95.6339C38.8671 94.5682 38.416 93.5421 37.9203 92.5755C37.4098 91.6188 36.8943 90.7117 36.3242 89.8987C35.774 89.0759 35.1841 88.3472 34.6289 87.6929C34.3365 87.3757 34.0539 87.0782 33.7863 86.7907C33.5037 86.5181 33.236 86.2653 32.9832 86.0224C32.4578 85.5664 31.9919 85.1748 31.5854 84.8873C31.1938 84.58 30.8518 84.3817 30.6337 84.233C30.4106 84.0892 30.2916 84.0099 30.2916 84.0099C30.2916 84.0099 30.4056 84.0942 30.6188 84.2578C30.827 84.4213 31.1492 84.6444 31.516 84.9765C31.8977 85.2888 32.3289 85.7101 32.8147 86.1959C33.0427 86.4537 33.2906 86.7214 33.5483 87.0089C33.7912 87.3112 34.044 87.6235 34.3067 87.9556C34.8074 88.6397 35.3279 89.3882 35.8087 90.2259C36.3044 91.0537 36.7455 91.9707 37.1718 92.9324C37.5833 93.899 37.9451 94.9201 38.2624 95.971C38.5647 97.0367 38.8027 98.0777 38.991 99.2178C39.1546 100.338 39.3182 101.453 39.4818 102.554C39.6453 103.669 39.8238 104.77 40.032 105.835C40.2501 106.901 40.4781 107.937 40.7805 108.909C41.0581 109.885 41.4199 110.792 41.7818 111.625C41.9801 112.036 42.1783 112.428 42.3717 112.8C42.5898 113.162 42.7979 113.504 42.9962 113.826C43.2193 114.133 43.4324 114.421 43.6258 114.688C43.829 114.956 44.062 115.189 44.2503 115.407C44.4189 115.6 44.5577 115.739 44.6816 115.858C44.6568 115.967 44.632 116.081 44.6072 116.19C44.518 116.622 44.4189 117.038 44.3396 117.474C44.2652 117.91 44.1958 118.347 44.1214 118.773C43.9579 119.655 43.9083 120.423 43.8042 121.231C43.6456 122.956 43.601 124.523 43.6307 126.079C43.6952 128.439 43.9232 130.62 44.2404 132.613C43.5464 131.988 42.7732 131.185 41.9652 130.199C41.7967 129.995 41.5984 129.757 41.4497 129.564C41.2712 129.336 41.0928 129.098 40.9094 128.86C40.5574 128.379 40.2204 127.923 39.8734 127.398C39.1744 126.367 38.4904 125.227 37.8014 124.032C36.4184 121.638 35.0453 118.971 33.3996 116.438C32.5768 115.174 31.6845 113.94 30.708 112.81C29.7414 111.699 28.6707 110.648 27.5901 109.746C25.4289 107.912 23.1289 106.579 21.0718 105.672C20.0407 105.226 19.0741 104.864 18.2017 104.606C17.3342 104.333 16.561 104.145 15.9215 104.011C15.2821 103.872 14.7765 103.788 14.4344 103.738C14.0875 103.684 13.9041 103.654 13.9041 103.654C13.9041 103.654 14.0875 103.694 14.4295 103.763C14.7715 103.833 15.2722 103.942 15.8967 104.115C16.5213 104.284 17.2797 104.512 18.1224 104.829C18.97 105.136 19.9069 105.543 20.8933 106.038C22.8662 107.045 25.0373 108.472 27.0349 110.366C28.0412 111.313 28.983 112.339 29.8753 113.489C30.7526 114.624 31.5457 115.853 32.2744 117.122C33.7367 119.665 34.9462 122.367 36.2152 124.88C36.8496 126.134 37.4841 127.348 38.1632 128.474C38.4854 129.034 38.8572 129.599 39.1893 130.109C39.3578 130.357 39.5264 130.6 39.69 130.838C39.8783 131.116 40.0369 131.324 40.2104 131.562C41.5587 133.411 42.9566 134.873 44.1512 135.725C44.4337 135.929 44.6965 136.102 44.9393 136.246C45.326 137.916 45.7473 139.394 46.134 140.653C46.6594 142.353 47.165 143.676 47.507 144.588C47.849 145.451 48.0325 145.907 48.0325 145.907C48.0374 145.922 48.0473 145.947 48.0572 145.962C48.4935 146.963 49.6583 147.419 50.6547 146.983C51.656 146.546 52.112 145.382 51.6758 144.385C51.6758 144.385 51.4775 143.934 51.1058 143.082C50.7687 142.269 50.268 141.064 49.7228 139.468C48.662 136.375 47.3434 131.839 46.9816 126.292C47.0262 126.283 47.0609 126.278 47.1055 126.273C47.398 126.218 47.735 126.169 48.0771 126.089C48.4141 126.005 48.781 125.911 49.1775 125.812C49.5592 125.688 49.9706 125.559 50.4019 125.42C50.8232 125.256 51.2644 125.083 51.7204 124.895C52.6176 124.483 53.5743 124.007 54.5161 123.393C55.4728 122.803 56.4097 122.079 57.3217 121.281C58.2437 120.483 59.0913 119.561 59.8993 118.584C60.7073 117.598 61.4062 116.527 62.0506 115.402C62.6554 114.331 63.2006 113.132 63.7013 112.021C64.192 110.901 64.6778 109.801 65.1487 108.73C65.6394 107.684 66.1153 106.668 66.6556 105.761C66.9035 105.29 67.2058 104.879 67.4685 104.457C67.756 104.056 68.0436 103.669 68.3311 103.312C68.9259 102.613 69.5356 102.018 70.1205 101.552C70.4229 101.329 70.7054 101.121 70.9681 100.928C71.2507 100.764 71.5084 100.616 71.7464 100.482C71.9793 100.338 72.1974 100.234 72.3908 100.16C72.5841 100.075 72.7477 100.006 72.8815 99.9464C73.1492 99.8324 73.2929 99.768 73.2929 99.768C73.2929 99.768 73.1442 99.8175 72.8716 99.9167C72.7378 99.9266 72.5692 99.9861 72.3709 100.055Z" fill="#2A5659"/>
<path d="M83.663 83.9653C53.8322 93.8692 64.9754 106.762 64.9754 106.762L65.5851 107.516L83.663 83.9653Z" fill="#16545A"/>
<path d="M83.6631 83.9653C81.8042 115.343 66.4675 107.912 66.4675 107.912L65.5852 107.516L83.6631 83.9653Z" fill="#013439"/>
<path d="M0 91.9858C12.5261 120.815 24.3732 108.567 24.3732 108.567L25.0672 107.893L0 91.9858Z" fill="#16545A"/>
<path d="M0 91.9856C31.4219 91.0388 25.3844 106.975 25.3844 106.975L25.0672 107.892L0 91.9856Z" fill="#013439"/>
<path d="M15.5103 71.9348C22.6234 102.554 36.4929 92.6449 36.4929 92.6449L37.2959 92.1046L15.5103 71.9348Z" fill="#16545A"/>
<path d="M15.5103 71.9348C46.5852 76.6786 37.7718 91.2619 37.7718 91.2619L37.2959 92.1046L15.5103 71.9348Z" fill="#013439"/>
<path d="M84 47.0561C54.0453 56.5783 65.02 69.615 65.02 69.615L65.6197 70.3734L84 47.0561Z" fill="#16545A"/>
<path d="M84.0001 47.0561C81.7397 78.4086 66.5021 70.7799 66.5021 70.7799L65.6248 70.3734L84.0001 47.0561Z" fill="#013439"/>
<path d="M82.5426 16.4074C54.3576 30.3215 67.1663 41.5588 67.1663 41.5588L67.8751 42.2181L82.5426 16.4074Z" fill="#16545A"/>
<path d="M82.5426 16.4074C85.0161 47.7451 68.802 42.4907 68.802 42.4907L67.8701 42.2181L82.5426 16.4074Z" fill="#013439"/>
<path d="M56.5635 0C40.8104 27.2036 57.7036 29.459 57.7036 29.459L58.6603 29.6176L56.5635 0Z" fill="#16545A"/>
<path d="M56.5635 0C75.9897 24.7152 59.5822 29.3251 59.5822 29.3251L58.6603 29.6176L56.5635 0Z" fill="#013439"/>
<path d="M34.9166 24.9829C21.6519 53.4802 38.6789 54.2238 38.6789 54.2238L39.6455 54.2932L34.9166 24.9829Z" fill="#16545A"/>
<path d="M34.9165 24.9829C56.4642 47.869 40.5377 53.9214 40.5377 53.9214L39.6405 54.2932L34.9165 24.9829Z" fill="#013439"/>
</g>
</g>
<defs>
<clipPath id="clip0">
<rect width="84" height="147.107" fill="white"/>
</clipPath>
</defs>
</svg>
